<?xml version="1.0" encoding="utf-8"?>
<svg xmlns="http://www.w3.org/2000/svg"
	xmlns:xlink="http://www.w3.org/1999/xlink"
	width="273px" height="23px" viewBox="0 0 273 23">
<path fillRule="evenodd" d="M 259.99 22.31C 259.08 21.39 259.08 19.9 259.99 18.97 259.99 18.97 265.06 13.88 265.06 13.88 265.06 13.88-46.65 13.88-46.65 13.88-47.95 13.88-49 12.83-49 11.53-49 10.23-47.95 9.17-46.65 9.17-46.65 9.17 265.11 9.17 265.11 9.17 265.11 9.17 259.99 4.02 259.99 4.02 259.08 3.1 259.08 1.61 259.99 0.69 260.91-0.23 262.39-0.23 263.31 0.69 263.31 0.69 271.94 9.37 271.94 9.37 272.1 9.52 272.22 9.69 272.32 9.87 272.74 10.3 273 10.88 273 11.53 273 12.21 272.71 12.83 272.24 13.26 272.15 13.39 272.05 13.51 271.94 13.63 271.94 13.63 263.31 22.31 263.31 22.31 262.39 23.23 260.91 23.23 259.99 22.31Z" fill="rgb(0,0,0)"/></svg>