<?xml version="1.0"?>
<svg xmlns="http://www.w3.org/2000/svg" xmlns:xlink="http://www.w3.org/1999/xlink" version="1.1" id="Capa_1" x="0px" y="0px" viewBox="0 0 512.533 512.533" style="enable-background:new 0 0 512.533 512.533;" xml:space="preserve" width="512px" height="512px"><g><g>
	<g>
		<path d="M427.741,244.627c-9.137-10.433-28.484-31.105-55.265-52.145l-9.268,11.795c27.212,21.378,46.789,42.78,54.736,51.97    c-41.198,47.56-104.707,95.624-166.74,107.088c-28.422,5.474-55.996,3.849-85.358-5.154    c40.513-61.695,40.598-142.036,0.003-203.859c53.497-16.403,112.351-10.416,181.632,38.264l8.623-12.273    c-23.971-16.844-47.931-29.428-71.635-37.671c9.296-6.77,16.216-16.584,20.384-29.093c4.774-14.329,4.206-27.213,4.18-27.755    l-0.306-6.229l-6.18-0.836c-46.985-6.362-77.175,9.882-94.222,24.628c-13.994,12.105-21.582,25.1-24.596,31.075    c-20.847,3.998-41.078,11.314-60.38,20.912C56.651,188.41,10.31,243.991,4.663,250.958c-0.332,0.408,0.32-0.266-4.663,4.717    c34.014,42.837,79.964,79.549,121.312,100.458c34.273,17.385,70.418,27.21,108.163,25.032l24.043,22.417l10.229-10.971    l-14.653-13.663c67.588-11.227,134.195-60.343,178.647-111.079c32.164,36.736,62.958,58.251,84.793,73.437V171.191    C486.607,189.222,458.626,209.353,427.741,244.627z M151.222,353.062c-66.133-25.53-117.207-80.474-131.383-96.813    c14.176-16.34,65.25-71.284,131.383-96.813C191.258,217.635,191.299,294.802,151.222,353.062z M293.834,92.836    c-0.981,11.653-5.923,36.033-29.789,43.399c-2.545-0.624-7.237-1.672-13.591-2.663l14.678-13.686l-10.229-10.971l-24.133,22.501    c-8.984-0.595-19.113-0.465-27.818,0.145C221.43,105.128,252.142,89.084,293.834,92.836z M497.533,312.238    c-29.974-22.713-51.55-46.238-59.994-55.991c8.434-9.75,29.975-33.247,59.994-55.988V312.238z" data-original="#000000" class="active-path" data-old_color="#39a34a" fill="#39a34a"/>
		<path d="M280.278,387.497c8.982,10.269,11.482,24.191,12.157,32.166c-44.401,3.967-70.716-14.608-85.149-31.368l-11.366,9.788    c15.231,17.687,41.698,37.14,84.407,37.14c11.18,0,19.102-1.217,27.011-2.288l0.307-6.228c0.058-1.187,1.229-29.303-16.077-49.086    L280.278,387.497z" data-original="#000000" class="active-path" data-old_color="#39a34a" fill="#39a34a"/>
		<path d="M122.353,194.493c-11.801,0-21.402,9.601-21.402,21.402s9.601,21.402,21.402,21.402s21.402-9.601,21.402-21.402    S134.154,194.493,122.353,194.493z M122.353,222.297c-3.53,0-6.402-2.872-6.402-6.402s2.872-6.402,6.402-6.402    s6.402,2.872,6.402,6.402S125.883,222.297,122.353,222.297z" data-original="#000000" class="active-path" data-old_color="#39a34a" fill="#39a34a"/>
	</g>
	<g>
		<path d="M301.076,263.749h-15v-15h15V263.749z M276.076,263.749h-15v-15h15V263.749z" data-original="#000000" class="active-path" data-old_color="#39a34a" fill="#39a34a"/>
	</g>
</g></g> </svg>
