<?xml version="1.0" encoding="utf-8"?>
<svg xmlns="http://www.w3.org/2000/svg"
	xmlns:xlink="http://www.w3.org/1999/xlink"
	width="60px" height="61px" viewBox="0 0 60 61">
<path fillRule="evenodd" d="M 53.54 22.57C 53.54 22.57 59.59 16.6 59.59 16.6 59.85 16.35 60 16 60 15.64 60 15.27 59.85 14.92 59.59 14.67 59.59 14.67 45.12 0.4 45.12 0.4 44.58-0.13 43.7-0.13 43.16 0.4 43.16 0.4 40.32 3.2 40.32 3.2 37.07 1.62 33.02 2.15 30.32 4.82 30.32 4.82 23.98 11.06 23.98 11.06 23.08 10.98 22.18 10.96 21.27 11.02 21.27 11.02 16.84 6.65 16.84 6.65 16.58 6.39 16.23 6.25 15.86 6.25 15.49 6.25 15.14 6.39 14.88 6.65 14.88 6.65 0.41 20.91 0.41 20.91 0.15 21.17 0 21.52 0 21.88 0 22.25 0.15 22.59 0.41 22.85 0.41 22.85 2.59 25 2.59 25 2.59 25 1.73 33.56 1.73 33.56 0.92 35.46 1.3 37.74 2.87 39.28 3.9 40.3 5.26 40.81 6.62 40.81 6.7 40.81 6.78 40.81 6.86 40.81 6.86 40.89 6.85 40.97 6.85 41.04 6.85 42.44 7.41 43.76 8.41 44.74 9.41 45.73 10.74 46.28 12.16 46.28 12.24 46.28 12.32 46.28 12.4 46.27 12.34 47.69 12.85 49.13 13.95 50.21 14.95 51.19 16.28 51.74 17.7 51.74 17.78 51.74 17.86 51.74 17.94 51.73 17.88 53.15 18.39 54.59 19.49 55.67 20.52 56.69 21.88 57.2 23.24 57.2 24.22 57.2 25.21 56.93 26.07 56.39 26.09 56.41 26.11 56.44 26.13 56.46 26.13 56.46 29.15 59.44 29.15 59.44 30.21 60.48 31.6 61 32.99 61 34.38 61 35.77 60.48 36.82 59.44 37.85 58.42 38.41 57.08 38.41 55.65 38.41 55.56 38.41 55.46 38.4 55.37 38.5 55.37 38.6 55.38 38.69 55.38 40.14 55.38 41.51 54.82 42.53 53.81 43.55 52.8 44.12 51.45 44.12 50.02 44.12 49.93 44.12 49.83 44.11 49.74 44.21 49.74 44.3 49.75 44.4 49.75 45.79 49.75 47.18 49.22 48.24 48.18 49.26 47.17 49.83 45.83 49.83 44.4 49.83 44.3 49.82 44.21 49.82 44.11 49.91 44.12 50.01 44.12 50.11 44.12 51.56 44.12 52.92 43.56 53.94 42.55 54.97 41.54 55.53 40.2 55.53 38.77 55.53 37.34 54.97 36 53.94 34.99 53.94 34.99 50.71 31.79 50.71 31.79 52.57 29 53.5 25.8 53.51 22.6 53.52 22.59 53.53 22.58 53.54 22.57ZM 44.14 3.31C 44.14 3.31 56.64 15.64 56.64 15.64 56.64 15.64 53.14 19.08 53.14 19.08 52.48 15.98 50.94 13.03 48.52 10.65 48.52 10.65 42.61 4.82 42.61 4.82 42.61 4.82 44.14 3.31 44.14 3.31ZM 4.84 37.34C 3.85 36.37 3.85 34.79 4.84 33.82 4.84 33.82 4.84 33.82 4.84 33.82 4.84 33.82 6.94 31.75 6.94 31.75 7.42 31.28 8.05 31.02 8.73 31.02 9.4 31.02 10.04 31.28 10.51 31.75 10.99 32.22 11.25 32.84 11.25 33.51 11.25 34.17 10.99 34.8 10.51 35.27 10.51 35.27 10.11 35.67 10.11 35.67 10.11 35.67 8.41 37.34 8.41 37.34 8.41 37.34 8.41 37.34 8.41 37.34 7.42 38.31 5.82 38.31 4.84 37.34ZM 12.16 43.53C 11.49 43.53 10.85 43.28 10.38 42.81 9.9 42.33 9.64 41.71 9.64 41.04 9.64 40.38 9.9 39.75 10.37 39.28 10.37 39.28 10.38 39.28 10.38 39.28 10.38 39.28 14.39 35.33 14.39 35.33 14.86 34.86 15.5 34.6 16.17 34.6 16.85 34.6 17.48 34.86 17.96 35.33 18.94 36.3 18.94 37.88 17.96 38.85 17.96 38.85 17.04 39.75 17.04 39.75 17.04 39.75 13.95 42.8 13.95 42.8 13.47 43.28 12.84 43.53 12.16 43.53ZM 17.7 49C 17.03 49 16.39 48.74 15.91 48.27 14.93 47.3 14.93 45.72 15.91 44.74 15.91 44.74 15.91 44.74 15.91 44.74 15.91 44.74 19.93 40.79 19.93 40.79 19.93 40.79 19.93 40.79 19.93 40.79 19.93 40.79 21.61 39.13 21.61 39.13 22.09 38.66 22.72 38.4 23.4 38.4 24.07 38.4 24.71 38.66 25.18 39.13 25.66 39.6 25.92 40.22 25.92 40.89 25.92 41.55 25.66 42.18 25.18 42.65 25.18 42.65 23.5 44.31 23.5 44.31 23.5 44.31 19.49 48.27 19.49 48.27 19.01 48.74 18.37 49 17.7 49ZM 21.45 53.73C 20.47 52.76 20.47 51.18 21.45 50.21 21.45 50.21 25.46 46.25 25.46 46.25 26.45 45.28 28.05 45.28 29.04 46.25 30.02 47.22 30.02 48.8 29.04 49.77 29.04 49.77 25.02 53.73 25.02 53.73 24.04 54.7 22.44 54.7 21.45 53.73ZM 52.75 38.77C 52.75 39.47 52.48 40.12 51.98 40.61 51.48 41.11 50.81 41.38 50.11 41.38 49.4 41.38 48.74 41.11 48.24 40.61 48.24 40.61 47.44 39.83 47.44 39.83 46.9 39.3 46.02 39.3 45.48 39.83 44.93 40.37 44.93 41.23 45.48 41.77 45.48 41.77 46.27 42.55 46.27 42.55 46.77 43.05 47.04 43.7 47.04 44.4 47.04 45.09 46.77 45.75 46.27 46.24 45.24 47.26 43.56 47.26 42.53 46.24 42.53 46.24 41.74 45.46 41.74 45.46 41.19 44.92 40.31 44.92 39.77 45.46 39.23 45.99 39.23 46.86 39.77 47.4 39.77 47.4 40.56 48.18 40.56 48.18 41.06 48.67 41.34 49.33 41.34 50.02 41.34 50.72 41.06 51.38 40.56 51.87 39.53 52.88 37.86 52.88 36.82 51.87 36.82 51.87 36.82 51.87 36.82 51.87 36.82 51.87 36.82 51.87 36.82 51.87 36.82 51.87 36.03 51.08 36.03 51.08 35.49 50.55 34.61 50.55 34.06 51.08 33.52 51.62 33.52 52.49 34.06 53.02 34.06 53.02 34.86 53.81 34.86 53.81 35.36 54.3 35.63 54.95 35.63 55.65 35.63 56.35 35.36 57 34.86 57.49 33.83 58.51 32.15 58.51 31.12 57.49 31.12 57.49 28.13 54.55 28.13 54.55 28.13 54.55 31 51.71 31 51.71 33.07 49.67 33.07 46.35 31 44.31 30.24 43.56 29.29 43.08 28.3 42.89 28.57 42.26 28.7 41.58 28.7 40.89 28.7 39.49 28.15 38.18 27.15 37.19 26.15 36.2 24.81 35.65 23.4 35.65 22.69 35.65 22 35.79 21.37 36.05 21.17 35.07 20.69 34.14 19.93 33.39 18.92 32.4 17.59 31.86 16.17 31.86 15.37 31.86 14.6 32.03 13.9 32.35 13.69 31.4 13.2 30.52 12.48 29.81 11.48 28.82 10.15 28.27 8.73 28.27 7.31 28.27 5.98 28.82 4.98 29.81 4.98 29.81 4.89 29.89 4.89 29.89 4.89 29.89 5.42 24.63 5.42 24.63 5.47 24.22 5.32 23.81 5.02 23.52 5.02 23.52 3.36 21.88 3.36 21.88 3.36 21.88 15.86 9.56 15.86 9.56 15.86 9.56 19.76 13.4 19.76 13.4 20.03 13.67 20.4 13.82 20.8 13.8 20.83 13.8 20.87 13.8 20.91 13.79 21.88 13.7 22.86 13.7 23.83 13.8 23.83 13.8 22.96 22.54 22.96 22.54 22.82 24.01 23.27 25.46 24.22 26.6 25.18 27.75 26.53 28.46 28.03 28.6 28.21 28.62 28.39 28.63 28.57 28.63 31.43 28.63 33.89 26.48 34.17 23.61 34.17 23.61 34.55 19.75 34.55 19.75 34.55 19.75 51.98 36.93 51.98 36.93 52.48 37.42 52.75 38.07 52.75 38.77ZM 48.69 29.81C 48.69 29.81 35.18 16.49 35.18 16.49 35.09 16.4 35 16.33 34.89 16.27 34.89 16.27 35.16 13.57 35.16 13.57 35.23 12.82 34.67 12.15 33.91 12.07 33.14 12 32.47 12.55 32.39 13.31 32.39 13.31 31.4 23.35 31.4 23.35 31.25 24.89 29.86 26.02 28.29 25.87 27.54 25.8 26.85 25.44 26.37 24.86 25.88 24.28 25.66 23.55 25.73 22.8 25.73 22.8 26.78 12.18 26.78 12.18 26.78 12.18 32.29 6.76 32.29 6.76 34.59 4.48 38.34 4.48 40.64 6.76 40.64 6.76 46.56 12.59 46.56 12.59 51.23 17.2 52.03 24.35 48.69 29.81Z" fill="rgb(57,163,73)"/></svg>