<?xml version="1.0"?>
<svg xmlns="http://www.w3.org/2000/svg" height="512px" viewBox="0 -18 414.33229 414" width="512px"><g><path d="m158.011719 363.765625h-69.316407c-16.183593 0-29.351562-13.164063-29.351562-29.351563v-36.867187c0-2.605469.34375-5.191406 1.015625-7.679687.992187-3.636719 4.734375-5.769532 8.378906-4.804688 3.640625.992188 5.789063 4.742188 4.800781 8.378906-.359374 1.324219-.542968 2.707032-.542968 4.105469v36.867187c0 8.65625 7.042968 15.699219 15.699218 15.699219h69.316407c3.769531 0 6.828125 3.058594 6.828125 6.828125 0 3.769532-3.058594 6.824219-6.828125 6.824219zm0 0" data-original="#000000" class="active-path" data-old_color="#39a34a" fill="#39a34a"/><path d="m323.535156 363.765625h-70.296875c-3.769531 0-6.828125-3.054687-6.828125-6.824219 0-3.769531 3.058594-6.828125 6.828125-6.828125h70.296875c8.65625 0 15.703125-7.042969 15.703125-15.699219v-36.867187c0-1.074219-.105469-2.140625-.320312-3.171875-.753907-3.695312 1.625-7.300781 5.320312-8.054688 3.664063-.792968 7.300781 1.621094 8.054688 5.320313.394531 1.929687.597656 3.914063.597656 5.90625v36.867187c0 16.1875-13.167969 29.351563-29.355469 29.351563zm0 0" data-original="#000000" class="active-path" data-old_color="#39a34a" fill="#39a34a"/><path d="m207.195312 377.53125c-6.410156 0-12.816406-1.042969-19.046874-3.132812-23.8125-7.980469-69.878907-27.484376-110.859376-68.425782-2.671874-2.667968-2.671874-6.988281-.007812-9.652344 2.664062-2.671874 6.992188-2.667968 9.652344-.007812 39.011718 38.972656 82.878906 57.539062 105.554687 65.140625 9.621094 3.226563 19.792969 3.226563 29.425781 0 24.003907-8.046875 70.230469-27.816406 110.144532-69.808594 2.597656-2.722656 6.929687-2.835937 9.652344-.242187 2.734374 2.597656 2.84375 6.917968.242187 9.648437-41.945313 44.128907-90.496094 64.898438-115.703125 73.347657-6.234375 2.089843-12.644531 3.132812-19.054688 3.132812zm0 0" data-original="#000000" class="active-path" data-old_color="#39a34a" fill="#39a34a"/><path d="m82.109375 307.96875c-1.746094 0-3.492187-.667969-4.820313-1.996094-40.851562-40.804687-66.554687-92.519531-76.402343-153.714844-3.710938-23.058593 4.363281-46.390624 21.597656-62.402343 2.753906-2.5625 7.082031-2.410157 9.644531.351562 2.566406 2.757813 2.410156 7.078125-.351562 9.644531-13.890625 12.90625-20.398438 31.6875-17.410156 50.242188 9.003906 55.964844 31.867187 103.550781 67.992187 141.535156 7.953125-7.082031 16.574219-13.574218 25.699219-19.347656 3.175781-2.019531 7.402344-1.070312 9.414062 2.117188 2.019532 3.183593 1.070313 7.398437-2.113281 9.417968-10.292969 6.515625-19.890625 14.007813-28.53125 22.265625-1.320313 1.257813-3.019531 1.886719-4.71875 1.886719zm0 0" data-original="#000000" class="active-path" data-old_color="#39a34a" fill="#39a34a"/><path d="m305.609375 280.65625c-1.152344 0-2.320313-.289062-3.386719-.90625-9.851562-5.652344-20.21875-10.378906-30.820312-14.042969-1.851563-.640625-3.34375-2.050781-4.085938-3.871093-.746094-1.824219-.667968-3.871094.210938-5.628907 36.667968-73.523437 57.222656-141.21875 61.09375-201.214843.15625-2.398438 1.558594-4.535157 3.695312-5.632813 2.132813-1.09375 4.691406-.988281 6.730469.28125 19.84375 12.378906 37.640625 25.921875 52.886719 40.238281 2.746094 2.578125 2.882812 6.898438.304687 9.648438-2.578125 2.753906-6.898437 2.878906-9.648437.304687-12.132813-11.394531-25.980469-22.292969-41.273438-32.484375-5.519531 56.996094-25.070312 120.179688-58.207031 188.125 8.882813 3.484375 17.566406 7.648438 25.902344 12.433594 3.269531 1.878906 4.398437 6.046875 2.523437 9.316406-1.257812 2.203125-3.558594 3.433594-5.925781 3.433594zm0 0" data-original="#000000" class="active-path" data-old_color="#39a34a" fill="#39a34a"/><path d="m337.003906 303.175781c-1.609375 0-3.230468-.570312-4.527344-1.71875-9.195312-8.160156-19.378906-15.460937-30.257812-21.707031-1.652344-.949219-2.832031-2.539062-3.257812-4.398438-.425782-1.855468-.054688-3.804687 1.023437-5.375 33.054687-48.332031 60.222656-107.90625 80.738281-177.0625.671875-2.265624 2.464844-4.023437 4.746094-4.648437 2.28125-.609375 4.714844-.023437 6.445312 1.589844 17.273438 16.050781 25.304688 39.636719 21.484376 63.085937-9.523438 58.421875-33.558594 108.257813-71.445313 148.113282-1.335937 1.410156-3.140625 2.121093-4.949219 2.121093zm-21.707031-31.503906c7.425781 4.625 14.503906 9.722656 21.164063 15.226563 33.421874-37.023438 54.765624-82.796876 63.464843-136.152344 2.449219-15.042969-1.132812-30.144532-9.6875-42.203125-19.605469 62.761719-44.777343 117.558593-74.941406 163.128906zm91.363281-119.828125h.066406zm0 0" data-original="#000000" class="active-path" data-old_color="#39a34a" fill="#39a34a"/><path d="m250.714844 259.773438c-.464844 0-.929688-.046876-1.402344-.144532-8.660156-1.808594-17.539062-2.988281-26.378906-3.511718-1.859375-.109376-3.59375-.976563-4.800782-2.402344-1.207031-1.421875-1.78125-3.277344-1.585937-5.132813 7.066406-66.539062 14.402344-161.921875 9.273437-238.46875-.144531-2.132812.71875-4.207031 2.332032-5.609375 1.613281-1.402344 3.804687-1.976562 5.882812-1.527344 6.234375 1.316407 11.675782 2.808594 16.628906 4.566407 11.835938 4.195312 23.691407 8.921875 35.230469 14.046875 3.445313 1.53125 4.996094 5.566406 3.464844 9.011718-1.53125 3.449219-5.550781 5.003907-9.011719 3.46875-11.214844-4.988281-22.738281-9.582031-34.246094-13.664062-1.933593-.683594-3.957031-1.328125-6.101562-1.929688 3.914062 73.101563-2.542969 160.636719-9.140625 224.558594 7.132813.6875 14.253906 1.761719 21.246094 3.222656 3.691406.769532 6.058593 4.386719 5.289062 8.082032-.679687 3.222656-3.519531 5.433594-6.679687 5.433594zm0 0" data-original="#000000" class="active-path" data-old_color="#39a34a" fill="#39a34a"/><path d="m164.292969 261.957031c-2.976563 0-5.703125-1.957031-6.558594-4.949219-22.636719-79.074218-33.832031-156.195312-33.285156-229.222656.019531-2.679687 1.605469-5.097656 4.054687-6.1875 11.519532-5.121094 23.371094-9.851562 35.226563-14.054687 4.957031-1.757813 10.398437-3.25 16.632812-4.5625 3.671875-.769531 7.308594 1.582031 8.085938 5.273437.777343 3.6875-1.582031 7.308594-5.273438 8.085938-5.636719 1.183594-10.503906 2.515625-14.878906 4.070312-10.148437 3.59375-20.292969 7.59375-30.214844 11.894532-.058593 68.46875 10.359375 140.621093 30.992188 214.632812 7.019531-1.585938 14.164062-2.785156 21.320312-3.578125 3.667969-.445313 7.121094 2.277344 7.535157 6.03125.417968 3.746094-2.277344 7.117187-6.027344 7.535156-8.722656.972657-17.425782 2.589844-25.875 4.804688-.578125.15625-1.160156.226562-1.734375.226562zm0 0" data-original="#000000" class="active-path" data-old_color="#39a34a" fill="#39a34a"/><path d="m191.148438 256.96875c-1.546876 0-3.054688-.527344-4.277344-1.5-1.410156-1.140625-2.316406-2.796875-2.507813-4.601562-7.175781-67.339844-14.625-163.925782-9.40625-241.664063.203125-3.050781 2.410157-5.59375 5.40625-6.222656 17.800781-3.75 35.859375-3.757813 53.667969 0 3.691406.777343 6.050781 4.398437 5.273438 8.085937-.78125 3.691406-4.417969 6.039063-8.085938 5.273438-14.25-3-28.675781-3.320313-42.972656-.953125-4.332032 73.269531 2.265625 162.492187 8.984375 227.324219 9.140625-.726563 17.886719-.730469 26.503906-.226563 3.761719.226563 6.636719 3.449219 6.414063 7.21875-.21875 3.761719-3.382813 6.636719-7.214844 6.414063-9.976563-.582032-20.253906-.390626-31.03125.8125-.25.027343-.5.039062-.753906.039062zm0 0" data-original="#000000" class="active-path" data-old_color="#39a34a" fill="#39a34a"/><path d="m111.714844 284.871094c-2.15625 0-4.273438-1.019532-5.597656-2.910156-35.21875-50.269532-63.996094-112.570313-85.527344-185.164063-.738282-2.472656-.011719-5.152344 1.867187-6.917969 15.253907-14.316406 33.046875-27.855468 52.890625-40.238281 3.195313-1.992187 7.414063-1.023437 9.40625 2.179687 1.996094 3.195313 1.023438 7.410157-2.175781 9.402344-17.757813 11.082032-33.78125 23.097656-47.683594 35.757813 20.214844 66.917969 46.691407 124.695312 78.769531 171.878906 8.410157-4.9375 17.175782-9.238281 26.136719-12.832031 3.503907-1.40625 7.480469.300781 8.875 3.800781 1.402344 3.5-.300781 7.472656-3.800781 8.875-10.199219 4.085937-20.128906 9.167969-29.515625 15.109375-1.132813.71875-2.394531 1.058594-3.644531 1.058594zm0 0" data-original="#000000" class="active-path" data-old_color="#39a34a" fill="#39a34a"/><path d="m142.339844 269.195312c-2.511719 0-4.90625-1.386718-6.097656-3.753906-38.480469-76.351562-60.050782-146.859375-64.09375-209.570312-.160157-2.507813 1.066406-4.902344 3.199218-6.230469 16.355469-10.207031 34.242188-19.636719 53.15625-28.046875 3.449219-1.535156 7.472656.027344 9.011719 3.46875 1.527344 3.445312-.023437 7.480469-3.464844 9.011719-17 7.550781-33.125 15.953125-47.992187 25 4.472656 58.347656 24.515625 123.792969 59.625 194.710937 5.515625-1.996094 11.171875-3.761718 16.878906-5.261718 3.640625-.964844 7.375 1.222656 8.339844 4.871093.957031 3.648438-1.226563 7.375-4.871094 8.335938-7.214844 1.894531-14.328125 4.242187-21.15625 6.972656-.832031.332031-1.691406.492187-2.535156.492187zm0 0" data-original="#000000" class="active-path" data-old_color="#39a34a" fill="#39a34a"/><path d="m273.636719 266.085938c-.742188 0-1.496094-.125-2.234375-.378907-7.085938-2.457031-14.519532-4.503906-22.089844-6.078125-1.851562-.386718-3.464844-1.527344-4.445312-3.148437-.980469-1.621094-1.246094-3.578125-.726563-5.398438 21.863281-77.085937 32.679687-152.179687 32.152344-223.199219-.015625-2.320312 1.144531-4.492187 3.085937-5.761718 1.9375-1.269532 4.394532-1.476563 6.515625-.53125 18.90625 8.402344 36.789063 17.839844 53.152344 28.046875 3.199219 1.996093 4.171875 6.207031 2.179687 9.40625-1.996093 3.203125-6.210937 4.171875-9.40625 2.179687-13.039062-8.132812-27.085937-15.765625-41.878906-22.753906-.542968 66.992188-10.867187 137.351562-30.730468 209.410156 5.683593 1.40625 11.261718 3.054688 16.660156 4.925782 3.5625 1.234374 5.449218 5.121093 4.214844 8.683593-.976563 2.824219-3.617188 4.597657-6.449219 4.597657zm0 0" data-original="#000000" class="active-path" data-old_color="#39a34a" fill="#39a34a"/></g> </svg>
