<?xml version="1.0" encoding="utf-8"?>
<svg xmlns="http://www.w3.org/2000/svg"
	xmlns:xlink="http://www.w3.org/1999/xlink"
	width="89px" height="329px" viewBox="0 0 89 329">
<path fillRule="evenodd" d="M 66.71 316.01C 67.63 315.09 69.12 315.09 70.04 316.01 70.04 316.01 75.13 321.07 75.13 321.07 75.13 321.07 75.13 89.36 75.13 89.36 75.13 88.07 76.19 87.01 77.49 87.01 78.79 87.01 79.84 88.07 79.84 89.36 79.84 89.36 79.84 321.13 79.84 321.13 79.84 321.13 84.99 316.01 84.99 316.01 85.91 315.09 87.41 315.09 88.33 316.01 89.25 316.92 89.25 318.41 88.33 319.32 88.33 319.32 79.65 327.96 79.65 327.96 79.49 328.11 79.32 328.24 79.14 328.34 78.72 328.76 78.13 329.01 77.49 329.01 76.8 329.01 76.18 328.72 75.75 328.25 75.62 328.17 75.5 328.07 75.39 327.96 75.39 327.96 66.71 319.32 66.71 319.32 65.79 318.41 65.79 316.92 66.71 316.01Z" fill="rgb(0,0,0)"/><path fillRule="evenodd" d="M 79.93 89.31C 79.93 89.31 75.02 89.31 75.02 89.31 75.05 88.42 75.09 87.53 75.09 86.63 75.09 44.13 42.59 9.18 0.97 5.02 0.97 5.02 0.97 0.13 0.97 0.13 45.31 4.3 80 41.43 80 86.63 80 87.53 79.96 88.42 79.93 89.31Z" fill="rgb(0,0,0)"/></svg>