<?xml version="1.0" encoding="utf-8"?>
<svg xmlns="http://www.w3.org/2000/svg"
	xmlns:xlink="http://www.w3.org/1999/xlink"
	width="25px" height="19px" viewBox="0 0 25 19">
<path fillRule="evenodd" d="M 21.94 19C 21.94 19 3.06 19 3.06 19 1.37 19-0 17.63-0 15.95-0 15.95-0 3.05-0 3.05-0 1.37 1.37-0 3.06-0 3.06-0 21.95-0 21.95-0 23.63-0 25 1.37 25 3.06 25 3.06 25 15.95 25 15.95 25 17.63 23.63 19 21.94 19ZM 23.6 15.95C 23.6 15.95 23.6 3.06 23.6 3.06 23.6 2.14 22.86 1.4 21.94 1.4 21.94 1.4 3.06 1.4 3.06 1.4 2.14 1.4 1.4 2.14 1.4 3.06 1.4 3.06 1.4 15.95 1.4 15.95 1.4 16.86 2.14 17.6 3.06 17.6 3.06 17.6 21.95 17.6 21.95 17.6 22.86 17.6 23.61 16.86 23.61 15.95 23.61 15.95 23.6 15.95 23.6 15.95ZM 21.93 16.15C 21.79 16.29 21.61 16.36 21.43 16.36 21.25 16.36 21.08 16.3 20.94 16.17 20.94 16.17 14.73 10.27 14.73 10.27 14.73 10.27 12.98 11.83 12.98 11.83 12.85 11.95 12.68 12.02 12.52 12.02 12.35 12.02 12.19 11.96 12.05 11.84 12.05 11.84 10.36 10.33 10.36 10.33 10.36 10.33 4.1 16.17 4.1 16.17 3.97 16.29 3.8 16.35 3.63 16.35 3.44 16.35 3.25 16.28 3.11 16.13 2.85 15.85 2.87 15.41 3.14 15.15 3.14 15.15 9.31 9.39 9.31 9.39 9.31 9.39 3.12 3.86 3.12 3.86 2.83 3.61 2.8 3.17 3.06 2.88 3.32 2.59 3.76 2.56 4.05 2.82 4.05 2.82 10.74 8.8 10.74 8.8 10.79 8.83 10.82 8.86 10.86 8.9 10.86 8.91 10.86 8.91 10.87 8.92 10.87 8.92 12.51 10.38 12.51 10.38 12.51 10.38 20.94 2.83 20.94 2.83 21.23 2.57 21.67 2.59 21.93 2.88 22.19 3.17 22.16 3.61 21.88 3.86 21.88 3.86 15.77 9.34 15.77 9.34 15.77 9.34 21.91 15.16 21.91 15.16 22.19 15.42 22.2 15.87 21.93 16.15Z" fill="rgb(45,50,40)"/></svg>