<?xml version="1.0" encoding="utf-8"?>
<svg xmlns="http://www.w3.org/2000/svg"
	xmlns:xlink="http://www.w3.org/1999/xlink"
	width="81px" height="82px" viewBox="0 0 81 82">
<path fillRule="evenodd" d="M 80.59 2.34C 80.59 2.34 75.51 7.4 75.51 7.4 75.51 7.4 75.51 40.57 75.51 40.57 75.51 40.57 36.38 80.58 36.38 80.58 35.42 81.53 34.18 82 32.93 82 31.69 82 30.46 81.53 29.51 80.59 29.51 80.59 1.42 52.62 1.42 52.62 0.5 51.71-0 50.5-0 49.21-0 47.92 0.5 46.71 1.42 45.8 1.42 45.8 41.6 5.47 41.6 5.47 41.6 5.47 73.56 5.47 73.56 5.47 73.56 5.47 78.65 0.4 78.65 0.4 79.19-0.13 80.06-0.13 80.6 0.4 81.13 0.94 81.13 1.8 80.59 2.34ZM 72.76 10.14C 72.76 10.14 66.13 16.74 66.13 16.74 66.85 17.82 67.27 19.11 67.27 20.5 67.27 24.27 64.19 27.34 60.41 27.34 56.62 27.34 53.54 24.27 53.54 20.5 53.54 16.74 56.62 13.67 60.41 13.67 61.8 13.67 63.1 14.09 64.18 14.81 64.18 14.81 70.82 8.2 70.82 8.2 70.82 8.2 42.74 8.2 42.74 8.2 42.74 8.2 3.36 47.73 3.36 47.73 2.96 48.13 2.74 48.65 2.74 49.21 2.74 49.77 2.96 50.29 3.36 50.69 3.36 50.69 31.46 78.66 31.46 78.66 32.28 79.48 33.61 79.48 34.42 78.66 34.42 78.66 72.76 39.46 72.76 39.46 72.76 39.46 72.76 10.14 72.76 10.14ZM 59.43 19.54C 59.43 19.54 62.17 16.81 62.17 16.81 61.63 16.56 61.04 16.4 60.41 16.4 58.13 16.4 56.29 18.24 56.29 20.5 56.29 22.76 58.13 24.6 60.41 24.6 62.68 24.6 64.52 22.76 64.52 20.5 64.52 19.87 64.37 19.28 64.11 18.75 64.11 18.75 61.38 21.47 61.38 21.47 61.11 21.74 60.76 21.87 60.41 21.87 60.05 21.87 59.7 21.74 59.43 21.47 58.9 20.94 58.9 20.07 59.43 19.54ZM 33.8 71.45C 34.33 70.91 35.2 70.91 35.75 71.43 36.3 71.96 36.3 72.82 35.77 73.35 35.5 73.64 35.14 73.78 34.79 73.78 34.44 73.78 34.1 73.64 33.83 73.38 33.29 72.86 33.28 72 33.8 71.45ZM 34.81 23.35C 34.47 23.35 34.13 23.21 33.85 22.95 33.32 22.42 33.32 21.55 33.85 21.01 34.38 20.47 35.25 20.47 35.79 21.01 36.32 21.54 36.32 22.4 35.8 22.94 35.53 23.21 35.17 23.35 34.81 23.35ZM 39.58 67.52C 40.13 68.04 40.13 68.9 39.6 69.44 39.33 69.72 38.97 69.85 38.62 69.85 38.27 69.85 37.93 69.73 37.67 69.47 37.12 68.94 37.11 68.08 37.64 67.53 38.16 67 39.03 66.98 39.58 67.52ZM 38.68 19.46C 38.34 19.46 37.98 19.33 37.72 19.07 37.19 18.53 37.17 17.66 37.71 17.13 38.25 16.59 39.11 16.59 39.66 17.13 40.2 17.66 40.2 18.52 39.66 19.05 39.4 19.33 39.04 19.46 38.68 19.46ZM 43.41 63.6C 43.96 64.12 43.96 64.99 43.44 65.52 43.16 65.79 42.8 65.93 42.45 65.93 42.1 65.93 41.76 65.81 41.5 65.55 40.95 65.03 40.94 64.16 41.47 63.62 41.99 63.07 42.87 63.06 43.41 63.6ZM 42.56 15.58C 42.21 15.58 41.86 15.45 41.6 15.19 41.05 14.65 41.05 13.79 41.58 13.24 42.12 12.71 42.98 12.71 43.52 13.24 44.07 13.78 44.07 14.64 43.53 15.17 43.26 15.45 42.91 15.58 42.56 15.58ZM 47.24 59.67C 47.79 60.21 47.8 61.07 47.27 61.61 46.99 61.89 46.64 62.02 46.28 62.02 45.94 62.02 45.59 61.9 45.33 61.64 44.78 61.11 44.77 60.25 45.3 59.7 45.82 59.17 46.69 59.15 47.24 59.67ZM 45.88 12.3C 45.88 11.55 46.48 10.94 47.25 10.94 48.01 10.94 48.62 11.55 48.62 12.3 48.62 13.05 48.01 13.67 47.25 13.67 46.48 13.67 45.88 13.05 45.88 12.3ZM 51.07 55.76C 51.62 56.28 51.62 57.16 51.1 57.69 50.82 57.96 50.47 58.1 50.11 58.1 49.77 58.1 49.42 57.98 49.16 57.72 48.61 57.2 48.6 56.32 49.13 55.79 49.65 55.25 50.53 55.23 51.07 55.76ZM 52.74 10.94C 53.5 10.94 54.12 11.55 54.12 12.3 54.12 13.05 53.5 13.67 52.74 13.67 51.97 13.67 51.37 13.05 51.37 12.3 51.37 11.55 51.97 10.94 52.74 10.94ZM 54.9 51.84C 55.45 52.36 55.46 53.24 54.93 53.78 54.65 54.05 54.29 54.19 53.94 54.19 53.59 54.19 53.25 54.05 52.99 53.8 52.44 53.28 52.43 52.41 52.96 51.87 53.48 51.32 54.36 51.31 54.9 51.84ZM 58.73 47.93C 59.28 48.45 59.29 49.31 58.76 49.86 58.5 50.13 58.14 50.27 57.77 50.27 57.42 50.27 57.08 50.15 56.82 49.89 56.27 49.35 56.26 48.49 56.79 47.96 57.32 47.41 58.19 47.4 58.73 47.93ZM 62.56 44.01C 63.11 44.53 63.12 45.4 62.59 45.95 62.33 46.22 61.97 46.36 61.61 46.36 61.25 46.36 60.91 46.22 60.65 45.96 60.1 45.45 60.09 44.57 60.62 44.04 61.16 43.49 62.02 43.48 62.56 44.01ZM 66.39 40.09C 66.94 40.62 66.95 41.48 66.42 42.03 66.16 42.3 65.8 42.44 65.44 42.44 65.09 42.44 64.74 42.32 64.48 42.06 63.93 41.52 63.92 40.66 64.45 40.12 64.98 39.58 65.85 39.57 66.39 40.09ZM 68.64 24.6C 69.4 24.6 70.01 25.22 70.01 25.97 70.01 26.72 69.4 27.34 68.64 27.34 67.88 27.34 67.27 26.72 67.27 25.97 67.27 25.22 67.88 24.6 68.64 24.6ZM 68.64 30.07C 69.4 30.07 70.01 30.68 70.01 31.44 70.01 32.19 69.4 32.8 68.64 32.8 67.88 32.8 67.27 32.19 67.27 31.44 67.27 30.68 67.88 30.07 68.64 30.07ZM 68.64 35.54C 69.4 35.54 70.01 36.15 70.01 36.9 70.01 37.66 69.4 38.27 68.64 38.27 67.88 38.27 67.27 37.66 67.27 36.9 67.27 36.15 67.88 35.54 68.64 35.54ZM 30.96 27.23C 30.6 27.23 30.26 27.09 29.99 26.83 29.45 26.3 29.45 25.44 29.98 24.89 30.52 24.36 31.38 24.36 31.92 24.89 32.47 25.42 32.47 26.28 31.93 26.82 31.66 27.09 31.31 27.23 30.96 27.23ZM 31.9 71.37C 32.44 71.91 32.44 72.77 31.9 73.31 31.63 73.57 31.29 73.71 30.93 73.71 30.59 73.71 30.23 73.57 29.97 73.31 29.43 72.77 29.43 71.91 29.97 71.37 30.49 70.84 31.37 70.84 31.9 71.37ZM 27.09 31.11C 26.74 31.11 26.39 30.97 26.12 30.71 25.59 30.18 25.58 29.32 26.11 28.77 26.65 28.24 27.51 28.24 28.06 28.77 28.6 29.3 28.6 30.16 28.06 30.7 27.8 30.97 27.44 31.11 27.09 31.11ZM 28.02 67.5C 28.55 68.04 28.55 68.91 28.02 69.45 27.76 69.7 27.4 69.84 27.04 69.84 26.7 69.84 26.34 69.7 26.08 69.45 25.55 68.91 25.55 68.04 26.08 67.5 26.62 66.97 27.48 66.97 28.02 67.5ZM 23.21 34.99C 22.87 34.99 22.53 34.85 22.25 34.59 21.72 34.06 21.72 33.19 22.25 32.65 22.77 32.12 23.65 32.12 24.19 32.65 24.72 33.17 24.72 34.05 24.2 34.58 23.93 34.85 23.57 34.99 23.21 34.99ZM 24.13 63.64C 24.67 64.17 24.67 65.04 24.13 65.58 23.87 65.84 23.51 65.97 23.16 65.97 22.81 65.97 22.46 65.84 22.2 65.58 21.66 65.04 21.66 64.17 22.2 63.64 22.73 63.1 23.6 63.1 24.13 63.64ZM 19.36 38.87C 19 38.87 18.65 38.73 18.39 38.47 17.84 37.94 17.84 37.07 18.38 36.53 18.92 36 19.78 36 20.32 36.53 20.87 37.07 20.87 37.93 20.33 38.46 20.06 38.73 19.71 38.87 19.36 38.87ZM 20.25 59.78C 20.78 60.31 20.78 61.18 20.25 61.71 19.99 61.98 19.63 62.1 19.29 62.1 18.93 62.1 18.59 61.98 18.31 61.71 17.78 61.18 17.78 60.32 18.31 59.78 18.85 59.25 19.71 59.25 20.25 59.78ZM 15.48 42.75C 15.14 42.75 14.78 42.62 14.52 42.36 13.99 41.82 13.97 40.96 14.51 40.41 15.04 39.88 15.91 39.88 16.44 40.41 16.99 40.95 16.99 41.81 16.46 42.34 16.2 42.62 15.84 42.75 15.48 42.75ZM 16.38 55.91C 16.91 56.45 16.91 57.31 16.38 57.84 16.1 58.11 15.74 58.24 15.4 58.24 15.04 58.24 14.7 58.11 14.43 57.84 13.89 57.31 13.89 56.45 14.43 55.91 14.96 55.38 15.83 55.38 16.38 55.91ZM 11.63 46.63C 11.27 46.63 10.93 46.5 10.65 46.24 10.12 45.7 10.12 44.84 10.65 44.3 11.17 43.76 12.05 43.76 12.59 44.3 13.12 44.83 13.12 45.69 12.59 46.22 12.33 46.5 11.97 46.63 11.63 46.63ZM 12.49 52.05C 13.03 52.58 13.03 53.44 12.49 53.97 12.22 54.25 11.87 54.38 11.52 54.38 11.16 54.38 10.82 54.25 10.54 53.97 10.01 53.44 10.01 52.58 10.54 52.05 11.08 51.51 11.96 51.51 12.49 52.05ZM 7.75 50.52C 7.4 50.52 7.05 50.38 6.78 50.12 6.24 49.59 6.24 48.72 6.78 48.18 7.32 47.64 8.18 47.64 8.72 48.18 9.25 48.71 9.26 49.57 8.73 50.11 8.45 50.38 8.1 50.52 7.75 50.52Z" fill="rgb(65,153,71)"/></svg>