<?xml version="1.0" encoding="utf-8"?>
<svg xmlns="http://www.w3.org/2000/svg"
	xmlns:xlink="http://www.w3.org/1999/xlink"
	width="89px" height="79px" viewBox="0 0 89 79">
<path fillRule="evenodd" d="M 83.17 48.52C 82.53 48.97 81.64 48.82 81.19 48.18 80.74 47.54 80.89 46.66 81.53 46.21 83.64 44.73 86.16 42.35 86.16 39.48 86.16 35.03 79.91 30.39 69.37 27.45 68.19 31.39 66.6 35.52 64.65 39.69 66.51 43.73 68.04 47.72 69.19 51.54 71.97 50.77 74.52 49.88 76.77 48.86 77.49 48.54 78.33 48.85 78.65 49.56 78.98 50.28 78.66 51.11 77.94 51.44 75.56 52.51 72.87 53.46 69.95 54.26 70.44 56.14 70.82 57.97 71.1 59.74 72.56 68.93 70.95 75.38 66.57 77.9 65.29 78.64 63.84 79 62.24 79 58.37 79 53.66 76.87 48.51 72.73 47.14 71.62 45.76 70.39 44.38 69.05 37.97 75.28 31.63 78.96 26.6 78.96 24.98 78.96 23.52 78.59 22.25 77.86 17.87 75.34 16.26 68.89 17.72 59.69 18 57.93 18.39 56.1 18.87 54.21 16.99 53.69 15.2 53.11 13.53 52.47 4.8 49.12-0 44.51-0 39.48-0 34.45 4.8 29.83 13.53 26.49 15.15 25.87 16.88 25.3 18.7 24.79 17.96 21.93 17.45 19.2 17.2 16.66 17.12 15.88 17.69 15.19 18.48 15.11 19.26 15.04 19.95 15.6 20.03 16.38 20.26 18.78 20.75 21.37 21.45 24.08 25.45 23.13 29.8 22.43 34.38 22.01 36.98 18.35 39.69 15.03 42.41 12.14 41.06 10.82 39.7 9.61 38.34 8.52 32.15 3.53 26.73 1.73 23.49 3.59 20.99 5.03 20.19 8.39 19.95 10.95 19.88 11.73 19.19 12.3 18.41 12.23 17.63 12.16 17.05 11.47 17.13 10.7 17.55 6.07 19.26 2.76 22.07 1.15 26.45-1.37 32.86 0.47 40.13 6.32 41.55 7.46 42.97 8.73 44.39 10.12 50.88 3.76 57.31-0 62.4-0 64.02-0 65.48 0.37 66.75 1.1 71.13 3.62 72.74 10.07 71.28 19.26 71 21.03 70.61 22.86 70.13 24.74 72.01 25.27 73.8 25.85 75.47 26.49 84.2 29.83 89 34.45 89 39.48 89 42.71 86.98 45.84 83.17 48.52ZM 66.62 26.74C 63.54 26.02 60.14 25.44 56.48 25.03 57.66 26.82 58.8 28.66 59.9 30.56 61.02 32.49 62.07 34.43 63.04 36.36 64.48 33.08 65.68 29.85 66.62 26.74ZM 63.03 43.01C 62.11 44.82 61.12 46.63 60.08 48.44 58.99 50.31 57.87 52.13 56.71 53.88 60.13 53.49 63.39 52.93 66.44 52.23 65.53 49.25 64.39 46.15 63.03 43.01ZM 50.3 70.53C 56.5 75.52 61.91 77.31 65.15 75.45 68.39 73.59 69.54 68.02 68.3 60.18 68.03 58.5 67.66 56.75 67.2 54.95 63.3 55.86 59.06 56.53 54.63 56.94 51.96 60.7 49.17 64.1 46.38 67.04 47.68 68.31 48.99 69.48 50.3 70.53ZM 44.39 65.02C 46.6 62.68 48.8 60.05 50.91 57.21 48.8 57.33 46.66 57.39 44.5 57.39 42.26 57.39 40.04 57.33 37.86 57.2 39.97 60.05 42.17 62.68 44.39 65.02ZM 23.67 75.41C 24.51 75.89 25.49 76.13 26.6 76.13 30.42 76.13 35.58 73.33 41.12 68.25 41.54 67.86 41.97 67.45 42.4 67.04 39.57 64.06 36.79 60.66 34.15 56.92 29.73 56.51 25.51 55.84 21.62 54.92 21.16 56.71 20.79 58.46 20.53 60.14 19.28 67.98 20.43 73.54 23.67 75.41ZM 32.07 53.87C 30.93 52.13 29.82 50.33 28.74 48.48 27.69 46.67 26.7 44.84 25.77 43.01 24.42 46.15 23.28 49.24 22.38 52.21 25.34 52.91 28.58 53.47 32.07 53.87ZM 19.46 27.49C 9.02 30.44 2.84 35.05 2.84 39.48 2.84 43.93 9.09 48.57 19.63 51.51 20.77 47.7 22.3 43.71 24.16 39.68 22.22 35.53 20.64 31.42 19.46 27.49ZM 22.21 26.78C 23.14 29.87 24.33 33.09 25.76 36.35 26.74 34.41 27.8 32.46 28.92 30.52 30.01 28.64 31.14 26.81 32.3 25.06 28.65 25.47 25.27 26.06 22.21 26.78ZM 31.38 31.94C 29.89 34.51 28.52 37.11 27.29 39.68 28.48 42.14 29.78 44.61 31.2 47.07 32.65 49.55 34.16 51.95 35.73 54.23 38.52 54.45 41.45 54.56 44.5 54.56 47.4 54.56 50.26 54.45 53.05 54.23 54.64 51.93 56.18 49.51 57.62 47.02 59.03 44.58 60.34 42.13 61.51 39.69 60.29 37.12 58.93 34.54 57.44 31.98 55.97 29.45 54.43 27.01 52.83 24.7 50.17 24.5 47.39 24.39 44.5 24.39 41.53 24.39 38.68 24.5 35.96 24.71 34.36 27.02 32.83 29.44 31.38 31.94ZM 44.4 14.17C 42.26 16.45 40.14 19 38.09 21.74 40.19 21.62 42.34 21.56 44.5 21.56 46.59 21.56 48.67 21.62 50.71 21.73 48.66 18.98 46.54 16.44 44.4 14.17ZM 65.33 3.55C 64.49 3.07 63.51 2.83 62.4 2.83 58.58 2.83 53.42 5.63 47.88 10.71 47.38 11.17 46.88 11.65 46.38 12.14 49.12 15.05 51.83 18.37 54.4 22 58.99 22.4 63.36 23.09 67.38 24.04 67.84 22.25 68.21 20.5 68.47 18.82 69.72 10.98 68.57 5.41 65.33 3.55ZM 51.6 39.48C 51.6 43.38 48.42 46.55 44.5 46.55 40.58 46.55 37.4 43.38 37.4 39.48 37.4 35.58 40.58 32.41 44.5 32.41 48.42 32.41 51.6 35.58 51.6 39.48ZM 40.24 39.48C 40.24 41.82 42.15 43.72 44.5 43.72 46.85 43.72 48.76 41.82 48.76 39.48 48.76 37.14 46.85 35.24 44.5 35.24 42.15 35.24 40.24 37.14 40.24 39.48Z" fill="rgb(65,153,71)"/></svg>