<?xml version="1.0" encoding="utf-8"?>
<svg xmlns="http://www.w3.org/2000/svg"
	xmlns:xlink="http://www.w3.org/1999/xlink"
	width="81px" height="81px" viewBox="0 0 81 81">
<path fillRule="evenodd" d="M 81 36.55C 81 36.55 81 34.01 81 34.01 81 27.05 75.3 21.36 68.34 21.36 68.34 21.36 63.5 21.36 63.5 21.36 63.53 21.04 63.6 20.73 63.6 20.41 63.6 14.73 58.99 10.12 53.31 10.12 51.12 10.12 49.1 10.82 47.43 11.99 44.69 4.98 37.89-0 29.9-0 19.5-0 11.07 8.43 11.07 18.82 11.07 19.73 11.16 20.62 11.28 21.49 4.97 22.19-0 27.52-0 34.01-0 34.01-0 36.54-0 36.54-0 43.18 5.19 48.6 11.71 49.1 11.71 49.1 11.71 59.17 11.71 59.17 11.71 59.17-0 59.17-0 59.17-0 59.17-0 74.77-0 74.77-0 74.77 10.34 74.77 10.34 74.77 10.34 74.77 10.34 78.47 10.34 78.47 10.34 78.47 5.06 78.47 5.06 78.47 5.06 78.47 5.06 81 5.06 81 5.06 81 18.14 81 18.14 81 18.14 81 18.14 78.47 18.14 78.47 18.14 78.47 12.87 78.47 12.87 78.47 12.87 78.47 12.87 74.78 12.87 74.78 12.87 74.78 23.2 74.78 23.2 74.78 23.2 74.78 23.2 59.17 23.2 59.17 23.2 59.17 14.24 59.17 14.24 59.17 14.24 59.17 14.24 49.2 14.24 49.2 14.24 49.2 39.23 49.2 39.23 49.2 39.23 49.2 39.23 59.17 39.23 59.17 39.23 59.17 28.9 59.17 28.9 59.17 28.9 59.17 28.9 74.78 28.9 74.78 28.9 74.78 39.23 74.78 39.23 74.78 39.23 74.78 39.23 78.47 39.23 78.47 39.23 78.47 33.96 78.47 33.96 78.47 33.96 78.47 33.96 81 33.96 81 33.96 81 47.04 81 47.04 81 47.04 81 47.04 78.47 47.04 78.47 47.04 78.47 41.77 78.47 41.77 78.47 41.77 78.47 41.77 74.78 41.77 74.78 41.77 74.78 52.1 74.78 52.1 74.78 52.1 74.78 52.1 59.17 52.1 59.17 52.1 59.17 41.77 59.17 41.77 59.17 41.77 59.17 41.77 49.2 41.77 49.2 41.77 49.2 68.34 49.2 68.34 49.2 68.34 49.2 68.34 59.17 68.34 59.17 68.34 59.17 57.8 59.17 57.8 59.17 57.8 59.17 57.8 74.78 57.8 74.78 57.8 74.78 68.13 74.78 68.13 74.78 68.13 74.78 68.13 78.47 68.13 78.47 68.13 78.47 62.86 78.47 62.86 78.47 62.86 78.47 62.86 81 62.86 81 62.86 81 75.94 81 75.94 81 75.94 81 75.94 78.47 75.94 78.47 75.94 78.47 70.66 78.47 70.66 78.47 70.66 78.47 70.66 74.78 70.66 74.78 70.66 74.78 81 74.78 81 74.78 81 74.78 81 59.17 81 59.17 81 59.17 70.87 59.17 70.87 59.17 70.87 59.17 70.87 48.94 70.87 48.94 76.63 47.76 81 42.64 81 36.55ZM 20.67 61.7C 20.67 61.7 20.67 72.25 20.67 72.25 20.67 72.25 2.53 72.25 2.53 72.25 2.53 72.25 2.53 61.7 2.53 61.7 2.53 61.7 20.67 61.7 20.67 61.7ZM 49.57 61.7C 49.57 61.7 49.57 72.25 49.57 72.25 49.57 72.25 31.43 72.25 31.43 72.25 31.43 72.25 31.43 61.7 31.43 61.7 31.43 61.7 49.57 61.7 49.57 61.7ZM 78.47 61.7C 78.47 61.7 78.47 72.25 78.47 72.25 78.47 72.25 60.33 72.25 60.33 72.25 60.33 72.25 60.33 61.7 60.33 61.7 60.33 61.7 78.47 61.7 78.47 61.7ZM 68.34 46.67C 68.34 46.67 12.66 46.67 12.66 46.67 7.07 46.67 2.53 42.13 2.53 36.54 2.53 36.54 2.53 34.01 2.53 34.01 2.53 28.88 6.41 24.58 11.56 24.01 11.56 24.01 14.16 23.72 14.16 23.72 14.16 23.72 13.79 21.14 13.79 21.14 13.66 20.25 13.61 19.51 13.61 18.82 13.61 9.84 20.92 2.53 29.9 2.53 36.65 2.53 42.61 6.61 45.07 12.91 45.07 12.91 46.24 15.92 46.24 15.92 46.24 15.92 48.88 14.07 48.88 14.07 50.2 13.14 51.73 12.66 53.31 12.66 57.59 12.66 61.06 16.13 61.06 20.41 61.06 20.5 61.04 20.59 61.03 20.68 61.01 20.83 60.99 20.97 60.98 21.12 60.98 21.12 60.72 23.89 60.72 23.89 60.72 23.89 63.5 23.89 63.5 23.89 63.5 23.89 68.34 23.89 68.34 23.89 73.93 23.89 78.47 28.43 78.47 34.01 78.47 34.01 78.47 36.54 78.47 36.54 78.47 42.13 73.93 46.67 68.34 46.67Z" fill="rgb(65,153,71)"/></svg>