<?xml version="1.0" encoding="utf-8"?>
<svg xmlns="http://www.w3.org/2000/svg"
	xmlns:xlink="http://www.w3.org/1999/xlink"
	width="31px" height="42px" viewBox="0 0 31 42">
<path fillRule="evenodd" d="M 30.56 37.76C 30.56 37.76 24.81 35.45 24.81 35.45 24.44 35.3 24.02 35.49 23.88 35.86 23.88 35.86 21.73 41.67 21.73 41.67 21.59 42.05 21.34 42.06 21.18 41.69 21.18 41.69 15.5 28.86 15.5 28.86 15.5 28.86 9.82 41.69 9.82 41.69 9.65 42.06 9.41 42.05 9.27 41.67 9.27 41.67 7.12 35.86 7.12 35.86 6.98 35.49 6.56 35.3 6.19 35.45 6.19 35.45 0.44 37.76 0.44 37.76 0.07 37.91-0.1 37.74 0.06 37.37 0.06 37.37 5.61 24.84 5.61 24.84 8.22 27.16 11.64 28.58 15.39 28.6 15.43 28.6 15.46 28.61 15.5 28.61 15.54 28.61 15.57 28.6 15.61 28.6 19.36 28.58 22.78 27.16 25.39 24.84 25.39 24.84 30.94 37.37 30.94 37.37 31.1 37.74 30.93 37.91 30.56 37.76ZM 24.88 23.69C 22.57 25.85 19.52 27.23 16.15 27.38 15.93 27.4 15.72 27.4 15.5 27.4 15.28 27.4 15.06 27.4 14.85 27.38 11.48 27.23 8.42 25.85 6.12 23.69 3.46 21.19 1.79 17.64 1.79 13.7 1.79 6.13 7.93-0 15.5-0 23.07-0 29.21 6.13 29.21 13.7 29.21 17.64 27.54 21.19 24.88 23.69ZM 15.5 2.48C 9.31 2.48 4.28 7.51 4.28 13.7 4.28 16.6 5.38 19.25 7.2 21.25 8.87 23.08 11.14 24.36 13.69 24.77 14.28 24.87 14.88 24.92 15.5 24.92 16.11 24.92 16.72 24.87 17.31 24.77 19.86 24.36 22.13 23.08 23.8 21.25 25.62 19.25 26.72 16.6 26.72 13.7 26.72 7.51 21.69 2.48 15.5 2.48ZM 23.26 20.03C 21.91 21.68 20.04 22.89 17.91 23.42 17.13 23.61 16.33 23.71 15.5 23.71 14.67 23.71 13.86 23.61 13.09 23.42 10.96 22.89 9.09 21.68 7.74 20.03 6.33 18.3 5.48 16.1 5.48 13.7 5.48 8.17 9.97 3.68 15.5 3.68 21.03 3.68 25.52 8.17 25.52 13.7 25.52 16.1 24.67 18.3 23.26 20.03Z" fill="rgb(255,255,255)"/></svg>