<?xml version="1.0" encoding="utf-8"?>
<svg xmlns="http://www.w3.org/2000/svg"
	xmlns:xlink="http://www.w3.org/1999/xlink"
	width="41px" height="41px" viewBox="0 0 41 41">
<path fillRule="evenodd" d="M 38.9 25.23C 37.74 25.23 36.8 24.29 36.8 23.13 36.8 23.13 36.8 17.87 36.8 17.87 36.8 16.71 37.74 15.77 38.9 15.77 40.06 15.77 41 16.71 41 17.87 41 17.87 41 23.13 41 23.13 41 24.29 40.06 25.23 38.9 25.23ZM 32.76 33.12C 31.6 33.12 30.66 32.17 30.66 31.01 30.66 31.01 30.66 9.99 30.66 9.99 30.66 8.82 31.6 7.88 32.76 7.88 33.93 7.88 34.87 8.82 34.87 9.99 34.87 9.99 34.87 31.01 34.87 31.01 34.87 32.17 33.93 33.12 32.76 33.12ZM 26.63 41C 25.47 41 24.53 40.06 24.53 38.9 24.53 38.9 24.53 2.1 24.53 2.1 24.53 0.94 25.47-0 26.63-0 27.79-0 28.73 0.94 28.73 2.1 28.73 2.1 28.73 38.9 28.73 38.9 28.73 40.06 27.79 41 26.63 41ZM 20.5 35.74C 19.34 35.74 18.4 34.8 18.4 33.64 18.4 33.64 18.4 7.36 18.4 7.36 18.4 6.2 19.34 5.26 20.5 5.26 21.66 5.26 22.6 6.2 22.6 7.36 22.6 7.36 22.6 33.64 22.6 33.64 22.6 34.8 21.66 35.74 20.5 35.74ZM 14.37 30.49C 13.21 30.49 12.27 29.54 12.27 28.38 12.27 28.38 12.27 12.61 12.27 12.61 12.27 11.45 13.21 10.51 14.37 10.51 15.53 10.51 16.47 11.45 16.47 12.61 16.47 12.61 16.47 28.38 16.47 28.38 16.47 29.54 15.53 30.49 14.37 30.49ZM 8.23 33.12C 7.07 33.12 6.13 32.17 6.13 31.01 6.13 31.01 6.13 9.99 6.13 9.99 6.13 8.82 7.07 7.88 8.23 7.88 9.4 7.88 10.34 8.82 10.34 9.99 10.34 9.99 10.34 31.01 10.34 31.01 10.34 32.17 9.4 33.12 8.23 33.12ZM 2.1 27.86C 0.94 27.86-0 26.92-0 25.76-0 25.76-0 15.24-0 15.24-0 14.08 0.94 13.14 2.1 13.14 3.26 13.14 4.2 14.08 4.2 15.24 4.2 15.24 4.2 25.76 4.2 25.76 4.2 26.92 3.26 27.86 2.1 27.86Z" fill="rgb(255,255,255)"/></svg>