<?xml version="1.0" encoding="utf-8"?>
<svg xmlns="http://www.w3.org/2000/svg"
	xmlns:xlink="http://www.w3.org/1999/xlink"
	width="32px" height="31px" viewBox="0 0 32 31">
<path fillRule="evenodd" d="M 31.15 20.73C 30.6 22.31 29.81 23.8 28.78 25.14 28.37 25.68 27.93 26.19 27.45 26.67 27.45 26.67 30.83 31 30.83 31 30.83 31 15.97 31 15.97 31 15.97 31 19.94 17.06 19.94 17.06 19.94 17.06 23.59 21.73 23.59 21.73 23.67 21.63 23.74 21.54 23.82 21.44 25.1 19.76 25.78 17.75 25.78 15.63 25.78 13.42 25.04 11.34 23.65 9.61 22.3 7.93 20.39 6.74 18.3 6.24 18.3 6.24 19.75 0.27 19.75 0.27 21.49 0.68 23.13 1.37 24.63 2.33 26.11 3.26 27.41 4.42 28.51 5.78 29.62 7.15 30.48 8.68 31.07 10.32 31.69 12.03 32 13.81 32 15.63 32 17.38 31.71 19.09 31.15 20.73ZM 8.4 9.4C 8.32 9.48 8.25 9.58 8.18 9.67 6.9 11.35 6.22 13.36 6.22 15.47 6.22 17.69 6.96 19.77 8.35 21.49 9.7 23.17 11.61 24.37 13.7 24.87 13.7 24.87 12.25 30.84 12.25 30.84 10.51 30.43 8.87 29.73 7.37 28.78 5.89 27.85 4.59 26.68 3.49 25.33 2.38 23.96 1.52 22.43 0.93 20.78 0.31 19.08-0 17.3-0 15.48-0 13.73 0.29 12.01 0.85 10.38 1.4 8.8 2.19 7.31 3.21 5.97 3.62 5.44 4.06 4.93 4.54 4.45 4.54 4.45 1.06 0 1.06 0 1.06 0 15.92-0 15.92-0 15.92-0 11.95 13.94 11.95 13.94 11.95 13.94 8.4 9.4 8.4 9.4Z" fill="rgb(255,255,255)"/></svg>