<?xml version="1.0" encoding="utf-8"?>
<svg xmlns="http://www.w3.org/2000/svg"
	xmlns:xlink="http://www.w3.org/1999/xlink"
	width="35px" height="35px" viewBox="0 0 35 35">
<path fillRule="evenodd" d="M 35 17.46C 35.03 18.78 33.79 19.39 33.05 19.76 33.76 19.79 33.7 21.53 33.7 22.24 33.7 24.19 32.49 24.35 31.84 24.72 32.8 24.75 32.58 26.71 32.58 27.47 32.58 29.22 31 29.31 30.44 29.86 31.46 29.89 31.28 31.85 31.28 32.7 31.34 33.74 30.62 35 28.95 35 27.27 35 16.48 35 15.92 34.91 15.36 34.82 11.91 32.06 10.98 31.6 10.05 31.14 8.84 31.51 8.84 31.51 8.84 31.51 8.84 15.9 8.84 15.9 8.84 15.9 11.54 16.15 12.29 15.44 13.01 14.76 16.29 9.05 16.94 7.09 17.48 5.48 16.69 1.52 18.43 0.48 19.79-0.34 22.26-0.33 23.09 2.22 24.36 6.18 23.08 10.5 22.9 11.86 22.71 13.24 22.77 14.16 23.74 14.07 25.13 14.07 31.84 14.08 33.32 14.07 35.25 14.05 34.97 16.02 35 17.46ZM-0 13.42C-0 13.42 7.63 13.42 7.63 13.42 7.63 13.42 7.63 34.91 7.63 34.91 7.63 34.91 3.26 34.91 3.26 34.91 3.26 34.91-0 13.42-0 13.42Z" fill="rgb(255,255,255)"/></svg>