<?xml version="1.0" encoding="utf-8"?>
<svg xmlns="http://www.w3.org/2000/svg"
	xmlns:xlink="http://www.w3.org/1999/xlink"
	width="29px" height="40px" viewBox="0 0 29 40">
<path fillRule="evenodd" d="M 24.63-0C 24.63-0 21.3 3.19 17.7 4.48-8.95 14.01 2.29 32.59 2.66 32.65 2.66 32.65 4.15 30.08 6.17 28.61 18.98 19.3 21.59 8.58 21.59 8.58 21.59 8.58 18.71 21.48 7.31 29.51 4.79 31.28 3.09 35.64 2.37 40 2.37 40 4.15 39.29 4.92 39.1 5.22 37.16 5.85 35.32 6.9 33.66 22.83 35.54 28.05 22.84 28.73 18.42 30.34 7.96 24.63-0 24.63-0Z" fill="rgb(255,255,255)"/></svg>