<?xml version="1.0" encoding="utf-8"?>
<!-- Generator: Adobe Illustrator 17.0.0, SVG Export Plug-In . SVG Version: 6.00 Build 0)  -->
<!DOCTYPE svg PUBLIC "-//W3C//DTD SVG 1.1//EN" "http://www.w3.org/Graphics/SVG/1.1/DTD/svg11.dtd">
<svg version="1.1" id="Layer_1" xmlns="http://www.w3.org/2000/svg" xmlns:xlink="http://www.w3.org/1999/xlink" x="0px" y="0px"
	 width="77px" height="58.01px" viewBox="0 -0.01 77 58.01" enable-background="new 0 -0.01 77 58.01" xml:space="preserve">
<path fill="#39A34A" d="M7.53,14.32C2.51,20.81,0,27.8,0,35.29c0,6.37,2.04,11.73,6.12,16.08c4.07,4.35,8.63,6.52,13.69,6.52
	c4.15,0,7.62-1.29,10.41-3.88c2.79-2.58,4.19-5.68,4.19-9.27c0-3.3-1.15-6.09-3.45-8.38c-2.31-2.29-5-3.43-8.1-3.43
	c-1.35,0-2.86,0.28-4.52,0.84c-1.66,0.57-2.98,0.85-3.96,0.85s-1.81-0.53-2.49-1.58c-0.76-0.97-1.13-2.77-1.13-5.39
	c0-4.43,1.43-8.51,4.3-12.26c2.86-3.75,7.62-7.34,14.26-10.79v-4.61C19.81,3.06,12.55,7.84,7.53,14.32z M50.09,14.1
	c-5.06,6.48-7.58,13.66-7.58,21.53c0,6.37,1.99,11.69,5.99,15.96c4,4.28,8.49,6.41,13.47,6.41c4.23,0,7.79-1.35,10.7-4.04
	c2.9-2.7,4.35-5.89,4.35-9.56c0-3.22-1.15-5.94-3.45-8.15c-2.3-2.21-5-3.32-8.09-3.32c-1.66,0-3.32,0.3-4.98,0.9
	c-1.66,0.6-2.9,0.9-3.73,0.9c-0.91,0-1.78-0.52-2.61-1.57c-0.83-1.05-1.24-2.63-1.24-4.73c0-4.64,1.2-8.69,3.62-12.14
	c2.41-3.45,7.43-7.34,15.05-11.69V0.33C62.31,3.02,55.14,7.62,50.09,14.1z"/>
</svg>
