<?xml version="1.0" encoding="utf-8"?>
<!-- Generator: Adobe Illustrator 17.0.0, SVG Export Plug-In . SVG Version: 6.00 Build 0)  -->
<!DOCTYPE svg PUBLIC "-//W3C//DTD SVG 1.1//EN" "http://www.w3.org/Graphics/SVG/1.1/DTD/svg11.dtd">
<svg version="1.1" id="Layer_1" xmlns="http://www.w3.org/2000/svg" xmlns:xlink="http://www.w3.org/1999/xlink" x="0px" y="0px"
	 width="77px" height="58px" viewBox="0 0 77 58" enable-background="new 0 0 77 58" xml:space="preserve">
<path fill="#39A34A" d="M69.49,43.67c5.02-6.49,7.53-13.48,7.53-20.97c0-6.37-2.04-11.73-6.12-16.08C66.83,2.27,62.27,0.1,57.21,0.1
	c-4.15,0-7.62,1.29-10.41,3.88c-2.79,2.58-4.19,5.68-4.19,9.27c0,3.3,1.15,6.09,3.45,8.38c2.31,2.29,5,3.43,8.1,3.43
	c1.35,0,2.86-0.28,4.52-0.84c1.66-0.57,2.98-0.85,3.96-0.85s1.81,0.53,2.49,1.58c0.76,0.97,1.13,2.77,1.13,5.39
	c0,4.43-1.43,8.51-4.3,12.26c-2.86,3.75-7.62,7.34-14.26,10.79V58C57.21,54.93,64.47,50.15,69.49,43.67z M26.93,43.89
	c5.06-6.48,7.58-13.66,7.58-21.53c0-6.37-1.99-11.69-5.99-15.96c-4-4.28-8.49-6.41-13.47-6.41c-4.23,0-7.79,1.35-10.7,4.04
	C1.45,6.73,0,9.92,0,13.59c0,3.22,1.15,5.94,3.45,8.15s5,3.32,8.09,3.32c1.66,0,3.32-0.3,4.98-0.9s2.9-0.9,3.73-0.9
	c0.91,0,1.78,0.52,2.61,1.57s1.24,2.63,1.24,4.73c0,4.64-1.2,8.69-3.62,12.14c-2.41,3.45-7.43,7.34-15.05,11.69v4.27
	C14.71,54.97,21.88,50.37,26.93,43.89z"/>
</svg>
