<?xml version="1.0" encoding="utf-8"?>
<svg xmlns="http://www.w3.org/2000/svg"
	xmlns:xlink="http://www.w3.org/1999/xlink"
	width="52px" height="23px" viewBox="0 0 52 23">
<path fillRule="evenodd" d="M 38.99 22.31C 38.08 21.39 38.08 19.9 38.99 18.97 38.99 18.97 44.06 13.88 44.06 13.88 44.06 13.88 2.35 13.88 2.35 13.88 1.05 13.88-0 12.83-0 11.53-0 10.23 1.05 9.17 2.35 9.17 2.35 9.17 44.11 9.17 44.11 9.17 44.11 9.17 38.99 4.02 38.99 4.02 38.08 3.1 38.08 1.61 38.99 0.69 39.91-0.23 41.39-0.23 42.31 0.69 42.31 0.69 50.94 9.37 50.94 9.37 51.1 9.52 51.22 9.69 51.32 9.87 51.74 10.3 52 10.88 52 11.53 52 12.21 51.71 12.83 51.24 13.26 51.15 13.39 51.05 13.51 50.94 13.63 50.94 13.63 42.31 22.31 42.31 22.31 41.39 23.23 39.91 23.23 38.99 22.31Z" fill="rgb(0,0,0)"/></svg>