<?xml version="1.0" encoding="utf-8"?>
<!-- Generator: Adobe Illustrator 17.0.0, SVG Export Plug-In . SVG Version: 6.00 Build 0)  -->
<!DOCTYPE svg PUBLIC "-//W3C//DTD SVG 1.1//EN" "http://www.w3.org/Graphics/SVG/1.1/DTD/svg11.dtd">
<svg version="1.1" id="Layer_1" xmlns="http://www.w3.org/2000/svg" xmlns:xlink="http://www.w3.org/1999/xlink" x="0px" y="0px"
	 width="23px" height="52px" viewBox="14.5 -14.5 23 52" enable-background="new 14.5 -14.5 23 52" xml:space="preserve">
<path d="M15.19,24.49c0.92-0.91,2.41-0.91,3.34,0l5.09,5.07v-41.71c0-1.3,1.05-2.35,2.35-2.35c1.3,0,2.36,1.05,2.36,2.35v41.76
	l5.15-5.12c0.92-0.91,2.41-0.91,3.33,0c0.92,0.92,0.92,2.4,0,3.32l-8.68,8.63c-0.15,0.16-0.32,0.28-0.5,0.38
	c-0.43,0.42-1.01,0.68-1.66,0.68c-0.68,0-1.3-0.29-1.73-0.76c-0.13-0.09-0.25-0.19-0.37-0.3l-8.68-8.63
	C14.27,26.89,14.27,25.41,15.19,24.49z"/>
</svg>
